<?xml version="1.0" encoding="UTF-8"?>
<svg version="1.1" xmlns="http://www.w3.org/2000/svg" width="512" height="512">
<path d="M0 0 C1.01790619 0.00215515 2.03581238 0.0043103 3.08456421 0.00653076 C17.69363523 0.05620146 32.02575853 0.30709809 46.375 3.3125 C47.34985352 3.51117676 48.32470703 3.70985352 49.32910156 3.91455078 C97.7109774 14.03517194 141.69928269 35.9516877 177.375 70.3125 C178.3640332 71.26068604 178.3640332 71.26068604 179.37304688 72.22802734 C188.86130305 81.37247479 197.6012044 90.66984009 205.375 101.3125 C206.23306152 102.46355017 207.09113451 103.61459177 207.94921875 104.765625 C213.98736829 112.95680614 219.34595521 121.47054105 224.375 130.3125 C224.73948242 130.94430176 225.10396484 131.57610352 225.47949219 132.22705078 C247.08534998 169.97532572 256.85198095 212.74189997 256.6875 255.9375 C256.68534485 256.95540619 256.6831897 257.97331238 256.68096924 259.02206421 C256.63129854 273.63113523 256.38040191 287.96325853 253.375 302.3125 C253.07698486 303.77478027 253.07698486 303.77478027 252.77294922 305.26660156 C242.65232806 353.6484774 220.7358123 397.63678269 186.375 433.3125 C185.74287598 433.97185547 185.11075195 434.63121094 184.45947266 435.31054688 C175.31502521 444.79880305 166.01765991 453.5387044 155.375 461.3125 C154.22394983 462.17056152 153.07290823 463.02863451 151.921875 463.88671875 C143.73224019 469.92427396 135.22961724 475.30707302 126.375 480.3125 C125.66778809 480.7146875 124.96057617 481.116875 124.23193359 481.53125 C101.09654164 494.5566741 75.92537591 503.30551461 49.9375 508.625 C49.21860596 508.77235596 48.49971191 508.91971191 47.7590332 509.0715332 C33.08339502 511.86090125 18.55831162 512.66142619 3.64770508 512.62817383 C0.70811513 512.6250221 -2.2304558 512.64854926 -5.16992188 512.67382812 C-18.54306192 512.71848737 -31.43916711 511.51301542 -44.625 509.3125 C-46.33055054 509.03031616 -46.33055054 509.03031616 -48.07055664 508.74243164 C-91.33802759 500.97044532 -132.38793216 480.98345309 -165.625 452.3125 C-166.37007813 451.67828125 -167.11515625 451.0440625 -167.8828125 450.390625 C-181.38779833 438.57948485 -194.05918743 425.82889772 -204.625 411.3125 C-205.48149066 410.16255169 -206.33826433 409.01281411 -207.1953125 407.86328125 C-213.23534209 399.67315742 -218.61867614 391.16870382 -223.625 382.3125 C-224.0271875 381.60528809 -224.429375 380.89807617 -224.84375 380.16943359 C-237.8691741 357.03404164 -246.61801461 331.86287591 -251.9375 305.875 C-252.08485596 305.15610596 -252.23221191 304.43721191 -252.3840332 303.6965332 C-255.35789088 288.05024391 -255.99800362 272.57681954 -255.9375 256.6875 C-255.93534485 255.66959381 -255.9331897 254.65168762 -255.93096924 253.60293579 C-255.88129854 238.99386477 -255.63040191 224.66174147 -252.625 210.3125 C-252.42632324 209.33764648 -252.22764648 208.36279297 -252.02294922 207.35839844 C-241.90232806 158.9765226 -219.9858123 114.98821731 -185.625 79.3125 C-184.99287598 78.65314453 -184.36075195 77.99378906 -183.70947266 77.31445312 C-174.56502521 67.82619695 -165.26765991 59.0862956 -154.625 51.3125 C-153.47394983 50.45443848 -152.32290823 49.59636549 -151.171875 48.73828125 C-142.98224019 42.70072604 -134.47961724 37.31792698 -125.625 32.3125 C-124.91778809 31.9103125 -124.21057617 31.508125 -123.48193359 31.09375 C-100.34654164 18.0683259 -75.17537591 9.31948539 -49.1875 4 C-48.46860596 3.85264404 -47.74971191 3.70528809 -47.0090332 3.5534668 C-31.36274391 0.57960912 -15.88931954 -0.06050362 0 0 Z " fill="#7584F1" transform="translate(255.625,-0.3125)"/>
<path d="M0 0 C0.66 0 1.32 0 2 0 C3.43833447 1.45722294 3.43833447 1.45722294 5.1125946 3.47950745 C8.94171104 7.97880128 13.01666118 12.15766588 17.19848633 16.32788086 C17.98633514 17.11748199 18.77418396 17.90708313 19.58590698 18.72061157 C22.16545524 21.30452697 24.74860301 23.88480805 27.33203125 26.46484375 C29.13342152 28.26690813 30.93466337 30.0691209 32.73576355 31.87147522 C36.49726871 35.63445003 40.26051693 39.39566946 44.02514648 43.15551758 C48.37775442 47.50266112 52.72671629 51.85342736 57.07384855 56.20604604 C61.26565488 60.4029305 65.46026065 64.59700824 69.65607262 68.78988838 C71.43867151 70.57181894 73.22052442 72.35449607 75.00162697 74.13792229 C77.48150788 76.62033038 79.96455011 79.0995315 82.44848633 81.57788086 C83.18770828 82.31912704 83.92693024 83.06037323 84.68855286 83.82408142 C85.69982239 84.83112122 85.69982239 84.83112122 86.73152161 85.85850525 C87.31790814 86.44451476 87.90429468 87.03052427 88.50845051 87.63429165 C89.97338955 89.10093622 89.97338955 89.10093622 92 90 C94.91916868 102.14887632 94.35931246 115.10008095 94.3125 127.5 C94.31034485 128.52290131 94.3081897 129.54580261 94.30596924 130.59970093 C94.25636838 145.2455721 94.0129916 159.61452168 91 174 C90.70198486 175.46228027 90.70198486 175.46228027 90.39794922 176.95410156 C80.27732806 225.3359774 58.3608123 269.32428269 24 305 C23.36787598 305.65935547 22.73575195 306.31871094 22.08447266 306.99804688 C12.94002521 316.48630305 3.64265991 325.2262044 -7 333 C-8.15105017 333.85806152 -9.30209177 334.71613451 -10.453125 335.57421875 C-18.64275981 341.61177396 -27.14538276 346.99457302 -36 352 C-36.70721191 352.4021875 -37.41442383 352.804375 -38.14306641 353.21875 C-61.27845836 366.2441741 -86.44962409 374.99301461 -112.4375 380.3125 C-113.15639404 380.45985596 -113.87528809 380.60721191 -114.6159668 380.7590332 C-129.29160498 383.54840125 -143.81668838 384.34892619 -158.72729492 384.31567383 C-161.66688487 384.3125221 -164.6054558 384.33604926 -167.54492188 384.36132812 C-177.40860919 384.39909243 -187.20955195 384.04310695 -197.01953125 382.98046875 C-197.92007736 382.90588943 -198.82062347 382.83131012 -199.74845886 382.75447083 C-204.48972172 382.15062054 -207.17520047 381.30278528 -210.1975708 377.51066589 C-214.3593076 372.51413772 -218.90167653 367.98052397 -223.51538086 363.40283203 C-224.9390966 361.9838229 -226.36281129 360.56481271 -227.78648579 359.14576221 C-229.30130075 357.63679534 -230.81734399 356.12907237 -232.33372307 354.6216774 C-235.50056905 351.47324949 -238.66295571 348.32036758 -241.82460022 345.16671753 C-250.80972046 336.20566156 -259.80086824 327.25066725 -268.79614258 318.29980469 C-273.77660931 313.34384952 -278.75350389 308.38433502 -283.72656161 303.42094505 C-286.87110628 300.28295048 -290.02010768 297.14951909 -293.17245758 294.0193665 C-295.58241999 291.62383518 -297.98589775 289.22183156 -300.39038086 286.82080078 C-301.2677037 285.95223953 -302.14502655 285.08367828 -303.04893494 284.188797 C-303.83816345 283.39826431 -304.62739197 282.60773163 -305.4405365 281.79324341 C-306.13200744 281.10491488 -306.82347837 280.41658634 -307.53590298 279.70739937 C-309 278 -309 278 -309 276 C-308.22095275 275.9512268 -307.4419055 275.90245359 -306.63925076 275.85220242 C-247.02033424 271.37086398 -209.35381246 241.32457952 -168.81640625 200.75390625 C-167.89826028 199.83576949 -167.89826028 199.83576949 -166.96156591 198.89908451 C-151.73697537 183.66003847 -136.78158725 168.16796654 -121.93365066 152.56260829 C-112.32341538 142.46251191 -102.63539518 132.44387178 -92.87280273 122.4909668 C-92.22479639 121.83028678 -91.57679005 121.16960677 -90.90914715 120.48890615 C-88.30242528 117.83173858 -85.69524816 115.17501884 -83.08745811 112.51889959 C-63.23581322 92.29738354 -43.44638408 72.01189883 -23.87440491 51.51925278 C-21.84450412 49.39425967 -19.80941553 47.27446251 -17.76925468 45.15931892 C-14.98684056 42.27368584 -12.2245676 39.36955426 -9.46437073 36.46266174 C-8.25357663 35.21334636 -8.25357663 35.21334636 -7.01832205 33.93879229 C-1.48482328 28.05902701 3.6557279 21.41929111 3.4375 12.9375 C3.24958355 8.1343555 1.94318774 4.37217242 0 0 Z " fill="#4855B7" transform="translate(418,128)"/>
<path d="M0 0 C7.36455293 4.03712459 12.90763356 10.7632891 18.66210938 16.75830078 C20.57847136 18.70811405 22.58840107 20.49935149 24.6875 22.25 C32.53873673 28.95269337 39.96428704 36.36118584 41.71875 46.87109375 C42.20163978 54.60940242 39.20173867 60.87686661 34.37809312 66.82141995 C32.04753491 69.32922112 29.6487867 71.74397674 27.20732117 74.14395142 C25.82883939 75.52884138 25.82883939 75.52884138 24.42250949 76.94170892 C21.89095343 79.48436843 19.34420463 82.01130078 16.79454219 84.53578591 C14.04044636 87.26818415 11.30092282 90.01512726 8.55955505 92.76028442 C3.81449414 97.50796046 -0.93959706 102.24643368 -5.700037 106.97868729 C-12.58271071 113.82063558 -19.45145075 120.67643456 -26.31692543 127.53563575 C-37.45746031 138.66524164 -48.60910295 149.78364792 -59.76782227 160.89501953 C-70.60409958 171.68536516 -81.43508569 182.48097701 -92.2590332 193.28369141 C-93.26069329 194.28338107 -93.26069329 194.28338107 -94.28258894 195.30326648 C-97.63275378 198.64690589 -100.98281523 201.99064886 -104.3328253 205.33444333 C-132.10170747 233.05153591 -159.88865723 260.75045838 -187.6875 288.4375 C-191.78849772 286.55114056 -194.59934011 283.79728818 -197.73828125 280.6171875 C-198.31531296 280.03969757 -198.89234467 279.46220764 -199.48686218 278.86721802 C-200.70707662 277.64398633 -201.92486351 276.41832895 -203.14038086 275.19042969 C-204.9779276 273.33478973 -206.82318538 271.48711463 -208.66992188 269.640625 C-213.90539035 264.38893774 -219.04951635 259.13196625 -223.8605957 253.48486328 C-228.22347516 248.59549977 -232.9736623 244.05081195 -237.625 239.4375 C-238.70140654 238.36612113 -239.77758014 237.29450818 -240.85351562 236.22265625 C-243.46216745 233.62490362 -246.07394471 231.03032038 -248.6875 228.4375 C-243.98002601 222.78465488 -238.95557789 217.55481826 -233.75714111 212.35324097 C-232.86885581 211.46057341 -231.9805705 210.56790585 -231.06536746 209.64818776 C-228.61492682 207.1858736 -226.16141366 204.72664174 -223.70732498 202.26796412 C-221.05518473 199.60983313 -218.40585499 196.94890309 -215.756073 194.28842163 C-209.36675979 187.87467371 -202.97257634 181.46579228 -196.57750142 175.05778998 C-194.77014384 173.24671564 -192.96291446 171.43551348 -191.15573025 169.62426615 C-179.92042215 158.36372996 -168.68352017 147.10478698 -157.44182205 135.85062981 C-154.84270556 133.24858394 -152.24360525 130.6465219 -149.64453125 128.04443359 C-148.99859334 127.39774964 -148.35265544 126.75106568 -147.68714365 126.08478524 C-137.2166945 115.60167414 -126.75657733 105.10831575 -116.30063596 94.61073647 C-105.55429142 83.82195016 -94.79852172 73.04263237 -84.03354716 62.27243435 C-77.99406382 56.22954081 -71.95879698 50.18256346 -65.93412018 44.12490463 C-60.80558105 38.96833395 -55.66858324 33.82038192 -50.5204201 28.68340002 C-47.89609817 26.06425547 -45.27594157 23.44128048 -42.66664505 20.80715942 C-39.83319167 17.94697546 -36.98057526 15.10668779 -34.12579346 12.26779175 C-33.31078786 11.43890406 -32.49578227 10.61001638 -31.65607953 9.75601089 C-22.66899659 0.89142933 -12.5745716 -5.09218189 0 0 Z " fill="#FCBA12" transform="translate(380.6875,91.5625)"/>
<path d="M0 0 C4.21676405 1.92860465 7.08321791 4.82970138 10.296875 8.1015625 C10.89050842 8.69802582 11.48414185 9.29448914 12.09576416 9.9090271 C13.98526627 11.8096981 15.86768392 13.71721474 17.75 15.625 C19.03209065 16.91712468 20.31463761 18.20879676 21.59765625 19.5 C24.73708432 22.66144479 27.87017801 25.8290461 31 29 C26.57663332 34.29414585 21.91385207 39.22601613 17.02737427 44.09288025 C16.24228922 44.87881972 15.45720417 45.6647592 14.64832866 46.47451502 C12.02980149 49.09468295 9.40772798 51.71127218 6.78564453 54.32788086 C4.90279483 56.21044836 3.02014458 58.09321334 1.13774109 59.97622681 C-2.90880704 64.02329791 -6.95717417 68.0685419 -11.00680161 72.11253166 C-16.86179686 77.95938123 -22.71401116 83.80900785 -28.56556214 89.65930421 C-38.06063183 99.15218819 -47.55793001 108.64283936 -57.05664062 118.13208008 C-66.28079761 127.34705048 -75.50389808 136.56307622 -84.72558594 145.78051758 C-85.29452575 146.34919467 -85.86346557 146.91787176 -86.44964598 147.50378149 C-89.30399701 150.35682743 -92.15832734 153.20989407 -95.01264739 156.062971 C-118.67189136 179.71185735 -142.33475652 203.35711731 -166 227 C-170.21676405 225.07139535 -173.08321791 222.17029862 -176.296875 218.8984375 C-177.18732513 218.00374252 -177.18732513 218.00374252 -178.09576416 217.0909729 C-179.98526627 215.1903019 -181.86768392 213.28278526 -183.75 211.375 C-185.03209065 210.08287532 -186.31463761 208.79120324 -187.59765625 207.5 C-190.73708432 204.33855521 -193.87017801 201.1709539 -197 198 C-192.57663332 192.70585415 -187.91385207 187.77398387 -183.02737427 182.90711975 C-181.84974669 181.72821054 -181.84974669 181.72821054 -180.64832866 180.52548498 C-178.02980149 177.90531705 -175.40772798 175.28872782 -172.78564453 172.67211914 C-170.90279483 170.78955164 -169.02014458 168.90678666 -167.13774109 167.02377319 C-163.09119296 162.97670209 -159.04282583 158.9314581 -154.99319839 154.88746834 C-149.13820314 149.04061877 -143.28598884 143.19099215 -137.43443786 137.34069579 C-127.93936817 127.84781181 -118.44206999 118.35716064 -108.94335938 108.86791992 C-99.71920239 99.65294952 -90.49610192 90.43692378 -81.27441406 81.21948242 C-80.70547425 80.65080533 -80.13653443 80.08212824 -79.55035402 79.49621851 C-76.69600299 76.64317257 -73.84167266 73.79010593 -70.98735261 70.937029 C-47.32810864 47.28814265 -23.66524348 23.64288269 0 0 Z " fill="#FECD00" transform="translate(329,122)"/>
<path d="M0 0 C7.36455293 4.03712459 12.90763356 10.7632891 18.66210938 16.75830078 C20.57847136 18.70811405 22.58840107 20.49935149 24.6875 22.25 C32.53873673 28.95269337 39.96428704 36.36118584 41.71875 46.87109375 C42.17894767 54.24576145 39.72342151 60.38151531 34.9760437 66.02670288 C31.15393045 70.20859347 27.07600993 74.13083627 23 78.0625 C21.76902273 79.26834866 20.53919468 80.47537166 19.31054688 81.68359375 C16.32427373 84.61526831 13.32290362 87.53061782 10.3125 90.4375 C3.37146567 84.75728209 -2.86423906 78.38748244 -9.18359375 72.0390625 C-10.38406287 70.83672532 -11.58475518 69.63461095 -12.78565979 68.43270874 C-15.92616548 65.28840837 -19.06365481 62.14111521 -22.20050049 58.99316406 C-25.40982618 55.77355827 -28.62203005 52.55682679 -31.83398438 49.33984375 C-38.12129102 43.04185365 -44.40541106 36.74069435 -50.6875 30.4375 C-45.65915038 24.49506263 -40.39734468 18.8625223 -34.9375 13.3125 C-34.09445312 12.43207031 -33.25140625 11.55164063 -32.3828125 10.64453125 C-23.22499566 1.36068941 -13.11754939 -5.31206546 0 0 Z " fill="#FD6A16" transform="translate(380.6875,91.5625)"/>
<path d="M0 0 C4.17258919 1.63687603 6.96425073 4.69330968 10.05078125 7.8203125 C10.62781296 8.39780243 11.20484467 8.97529236 11.79936218 9.57028198 C13.01957662 10.79351367 14.23736351 12.01917105 15.45288086 13.24707031 C17.2904276 15.10271027 19.13568538 16.95038537 20.98242188 18.796875 C26.21789035 24.04856226 31.36201635 29.30553375 36.1730957 34.95263672 C40.53597516 39.84200023 45.2861623 44.38668805 49.9375 49 C51.01390654 50.07137887 52.09008014 51.14299182 53.16601562 52.21484375 C55.77466745 54.81259638 58.38644471 57.40717962 61 60 C57.6705832 62.2196112 54.45288663 63.17384101 50.65454102 64.24658203 C49.53698425 64.56888794 49.53698425 64.56888794 48.39685059 64.89770508 C45.93402825 65.6063979 43.4690779 66.30733921 41.00390625 67.0078125 C39.29132889 67.49789012 37.57884126 67.98828142 35.86643982 68.47897339 C32.27708511 69.50618853 28.68666567 70.52957197 25.09545898 71.55029297 C20.49212094 72.85902334 15.89155685 74.17721594 11.291749 75.49829292 C7.75583406 76.51268409 4.21849645 77.52203747 0.68070793 78.52987289 C-1.01620888 79.0139438 -2.71267845 79.49958535 -4.4086895 79.98682022 C-6.7794186 80.66707346 -9.15197758 81.34052285 -11.52514648 82.01220703 C-12.22605911 82.21478119 -12.92697174 82.41735535 -13.64912415 82.62606812 C-16.94604925 83.55167694 -19.53625933 84 -23 84 C-22.29887335 77.10892666 -20.3076918 70.63370023 -18.375 64 C-18.01672119 62.75686035 -17.65844238 61.5137207 -17.28930664 60.23291016 C-14.81085705 51.67298336 -12.22255722 43.15030628 -9.59106445 34.63647461 C-6.08358176 23.17789081 -3.04639994 11.58807436 0 0 Z " fill="#E8ECF4" transform="translate(131,320)"/>
<path d="M0 0 C9.12258866 4.30033971 15.59823114 13.14773421 20 22 C21.95370196 27.86110589 21.89939335 33.82663116 19.30859375 39.48828125 C15.31457836 47.10373597 8.80680246 52.7224041 2.6875 58.625 C1.45652273 59.83084866 0.22669468 61.03787166 -1.00195312 62.24609375 C-3.98822627 65.17776831 -6.98959638 68.09311782 -10 71 C-16.74080425 65.47349666 -22.8071129 59.30550441 -28.9375 53.125 C-30.01343727 52.04403726 -31.08960731 50.96330617 -32.16601562 49.8828125 C-34.78003292 47.25787359 -37.39088596 44.62981372 -40 42 C-38.56741228 38.72803548 -36.81174684 36.56796044 -34.28466797 34.05761719 C-33.52403046 33.29713074 -32.76339294 32.53664429 -31.97970581 31.75311279 C-31.15882477 30.94255432 -30.33794373 30.13199585 -29.4921875 29.296875 C-28.65156769 28.45908508 -27.81094788 27.62129517 -26.94485474 26.75811768 C-24.25955999 24.08401569 -21.56739345 21.41695276 -18.875 18.75 C-17.05292845 16.93795938 -15.23130823 15.12546482 -13.41015625 13.3125 C-8.94532748 8.86971964 -4.47483717 4.43269835 0 0 Z " fill="#F14501" transform="translate(401,111)"/>
<path d="M0 0 C4.13922888 1.64582286 6.99540069 4.63722895 10.11328125 7.70703125 C10.6870903 8.26944016 11.26089935 8.83184906 11.85209656 9.41130066 C13.05921921 10.59957697 14.26349444 11.79075194 15.46508789 12.98461914 C17.30984687 14.80987492 19.17481734 16.61272014 21.04101562 18.41601562 C22.21224879 19.57419627 23.38221563 20.7336592 24.55078125 21.89453125 C25.11211258 22.43116898 25.67344391 22.9678067 26.25178528 23.52070618 C27.7902832 25.07739258 27.7902832 25.07739258 30 28 C29.73192861 31.8575043 28.66954822 33.82722901 25.94897461 36.50512695 C25.30838608 37.14541336 24.66779755 37.78569977 24.00779724 38.44538879 C23.31299759 39.1195433 22.61819794 39.79369781 21.90234375 40.48828125 C21.19348526 41.19147995 20.48462677 41.89467865 19.75428772 42.6191864 C17.49124831 44.85986096 15.21469069 47.08621772 12.9375 49.3125 C11.39947863 50.83045671 9.86235793 52.34932658 8.32617188 53.86914062 C4.56116283 57.59008082 0.7849631 61.29936497 -3 65 C-3.47703369 64.59007812 -3.95406738 64.18015625 -4.44555664 63.7578125 C-5.07324951 63.21898437 -5.70094238 62.68015625 -6.34765625 62.125 C-6.96906494 61.59132813 -7.59047363 61.05765625 -8.23071289 60.5078125 C-9.62033942 59.32355233 -11.0260251 58.15813325 -12.4375 57 C-14.67377761 54.13756466 -14.29866527 52.63241544 -14 49 C-13.1428612 45.53032042 -12.03963053 42.14859823 -10.9375 38.75 C-6.89980354 25.93552183 -3.41548843 12.99203477 0 0 Z " fill="#FEFDFD" transform="translate(131,320)"/>
<path d="M0 0 C0.57073242 0.73371826 1.14146484 1.46743652 1.72949219 2.22338867 C3.82091811 4.78100018 5.9853652 7.09975545 8.328125 9.42578125 C9.12734375 10.22177734 9.9265625 11.01777344 10.75 11.83789062 C11.9875 13.06282227 11.9875 13.06282227 13.25 14.3125 C14.51070312 15.56643555 14.51070312 15.56643555 15.796875 16.84570312 C17.8623316 18.89942418 19.93009274 20.95076637 22 23 C21 25 21 25 18.6550293 25.86962891 C17.63836182 26.15241699 16.62169434 26.43520508 15.57421875 26.7265625 C14.46755859 27.0359375 13.36089844 27.3453125 12.22070312 27.6640625 C11.05474609 27.98117187 9.88878906 28.29828125 8.6875 28.625 C6.9559668 29.11226563 6.9559668 29.11226563 5.18945312 29.609375 C-3.4640067 32 -3.4640067 32 -8 32 C-7.29304559 25.1395551 -5.33617314 18.67589812 -3.4375 12.0625 C-2.9434668 10.32129883 -2.9434668 10.32129883 -2.43945312 8.54492188 C-1.6303404 5.69543794 -0.81708013 2.84720753 0 0 Z " fill="#D9DFEA" transform="translate(116,372)"/>
<path d="M0 0 C3.45201639 1.47721422 5.64961936 3.43794001 8.25 6.125 C8.95640625 6.84945313 9.6628125 7.57390625 10.390625 8.3203125 C11.18726563 9.15175781 11.18726563 9.15175781 12 10 C11 12 11 12 8.63916016 12.88549805 C5.30335012 13.82834119 1.96761965 14.76901585 -1.375 15.6875 C-2.53773437 16.02072266 -3.70046875 16.35394531 -4.8984375 16.69726562 C-6.5690625 17.16229492 -6.5690625 17.16229492 -8.2734375 17.63671875 C-9.29872559 17.92248779 -10.32401367 18.20825684 -11.38037109 18.50268555 C-14 19 -14 19 -17 18 C-16.52054932 17.52578613 -16.04109863 17.05157227 -15.54711914 16.56298828 C-13.38298162 14.41959665 -11.22270353 12.2723561 -9.0625 10.125 C-8.30775391 9.37863281 -7.55300781 8.63226563 -6.77539062 7.86328125 C-6.05673828 7.14785156 -5.33808594 6.43242187 -4.59765625 5.6953125 C-3.93258057 5.03547363 -3.26750488 4.37563477 -2.58227539 3.69580078 C-0.9186289 2.07326068 -0.9186289 2.07326068 0 0 Z " fill="#BEC3D3" transform="translate(126,385)"/>
</svg>
